<svg xmlns="http://www.w3.org/2000/svg" xmlns:xlink="http://www.w3.org/1999/xlink" width="500" zoomAndPan="magnify" viewBox="0 0 375 374.999991" height="500" preserveAspectRatio="xMidYMid meet" version="1.0"><defs><clipPath id="a1b5dccf72"><path d="M 187 205 L 262.5 205 L 262.5 260.8125 L 187 260.8125 Z M 187 205 " clip-rule="nonzero"/></clipPath><clipPath id="88c3710a5f"><path d="M 112.5 118 L 224 118 L 224 260.8125 L 112.5 260.8125 Z M 112.5 118 " clip-rule="nonzero"/></clipPath></defs><rect x="-37.5" width="450" fill="#ffffff" y="-37.499999" height="449.999989" fill-opacity="1"/><rect x="-37.5" width="450" fill="#121327" y="-37.499999" height="449.999989" fill-opacity="1"/><path fill="#2d5ec2" d="M 214.574219 146.398438 C 204.273438 133.949219 183.605469 124.1875 167.003906 142.921875 C 166.054688 143.992188 160.207031 144.949219 159.066406 145.296875 C 159.066406 145.296875 168.785156 127.203125 169.695312 124.453125 C 170.28125 122.683594 174.589844 118.226562 174.589844 118.226562 C 182.832031 114.726562 192.21875 114.621094 200.414062 118.226562 C 200.414062 118.226562 200.4375 118.246094 200.488281 118.28125 C 200.945312 118.625 203.519531 120.609375 205.917969 124 C 208.15625 127.160156 214.574219 146.394531 214.574219 146.394531 Z M 214.574219 146.398438 " fill-opacity="1" fill-rule="nonzero"/><path fill="#3f73db" d="M 187.5 189.402344 C 183.148438 198.847656 177.082031 202.890625 167.441406 205.132812 C 157.457031 192.25 151.375 177.402344 151.375 160.5625 C 151.375 146.382812 154.613281 132.140625 174.585938 118.230469 C 172.328125 122.597656 170.652344 126.90625 169.496094 131.132812 C 168.929688 133.207031 168.484375 135.269531 168.164062 137.308594 C 165.023438 157.226562 173.382812 175.132812 187.492188 189.40625 Z M 187.5 189.402344 " fill-opacity="1" fill-rule="nonzero"/><g clip-path="url(#a1b5dccf72)"><path fill="#3f73db" d="M 262.5 260.746094 C 236.289062 253.355469 208.648438 241.460938 187.5 224.925781 C 191.59375 212.097656 195.6875 207.324219 207.558594 205.132812 C 222.871094 214.539062 240.660156 220.792969 257.332031 222.878906 L 248.984375 238.148438 L 262.503906 260.746094 Z M 262.5 260.746094 " fill-opacity="1" fill-rule="nonzero"/></g><g clip-path="url(#88c3710a5f)"><path fill="#74abf3" d="M 200.484375 118.285156 C 200.433594 118.246094 200.410156 118.230469 200.410156 118.230469 C 202.546875 122.371094 204.167969 126.457031 205.3125 130.46875 C 205.902344 132.535156 206.367188 134.582031 206.710938 136.605469 C 210.164062 156.804688 201.777344 174.960938 187.5 189.40625 C 181.664062 195.308594 174.839844 200.589844 167.441406 205.136719 C 152.128906 214.542969 134.335938 220.796875 117.664062 222.882812 L 126.011719 238.152344 L 112.5 260.746094 C 138.714844 253.355469 166.351562 241.460938 187.5 224.925781 C 195.160156 218.941406 201.972656 212.34375 207.558594 205.132812 C 217.542969 192.25 223.621094 177.402344 223.621094 160.5625 C 223.621094 138.53125 211.011719 125.625 200.488281 118.285156 Z M 200.882812 118.59375 C 200.734375 118.476562 200.617188 118.382812 200.546875 118.328125 C 200.625 118.386719 200.738281 118.476562 200.882812 118.59375 Z M 200.882812 118.59375 " fill-opacity="1" fill-rule="nonzero"/></g></svg>
<svg xmlns="http://www.w3.org/2000/svg" xmlns:xlink="http://www.w3.org/1999/xlink" width="500" zoomAndPan="magnify" viewBox="0 0 375 374.999991" height="500" preserveAspectRatio="xMidYMid meet" version="1.0"><defs><clipPath id="a1b5dccf72"><path d="M 187 205 L 262.5 205 L 262.5 260.8125 L 187 260.8125 Z M 187 205 " clip-rule="nonzero"/></clipPath><clipPath id="88c3710a5f"><path d="M 112.5 118 L 224 118 L 224 260.8125 L 112.5 260.8125 Z M 112.5 118 " clip-rule="nonzero"/></clipPath></defs><rect x="-37.5" width="450" fill="#ffffff" y="-37.499999" height="449.999989" fill-opacity="1"/><rect x="-37.5" width="450" fill="#121327" y="-37.499999" height="449.999989" fill-opacity="1"/><path fill="#2d5ec2" d="M 214.574219 146.398438 C 204.273438 133.949219 183.605469 124.1875 167.003906 142.921875 C 166.054688 143.992188 160.207031 144.949219 159.066406 145.296875 C 159.066406 145.296875 168.785156 127.203125 169.695312 124.453125 C 170.28125 122.683594 174.589844 118.226562 174.589844 118.226562 C 182.832031 114.726562 192.21875 114.621094 200.414062 118.226562 C 200.414062 118.226562 200.4375 118.246094 200.488281 118.28125 C 200.945312 118.625 203.519531 120.609375 205.917969 124 C 208.15625 127.160156 214.574219 146.394531 214.574219 146.394531 Z M 214.574219 146.398438 " fill-opacity="1" fill-rule="nonzero"/><path fill="#3f73db" d="M 187.5 189.402344 C 183.148438 198.847656 177.082031 202.890625 167.441406 205.132812 C 157.457031 192.25 151.375 177.402344 151.375 160.5625 C 151.375 146.382812 154.613281 132.140625 174.585938 118.230469 C 172.328125 122.597656 170.652344 126.90625 169.496094 131.132812 C 168.929688 133.207031 168.484375 135.269531 168.164062 137.308594 C 165.023438 157.226562 173.382812 175.132812 187.492188 189.40625 Z M 187.5 189.402344 " fill-opacity="1" fill-rule="nonzero"/><g clip-path="url(#a1b5dccf72)"><path fill="#3f73db" d="M 262.5 260.746094 C 236.289062 253.355469 208.648438 241.460938 187.5 224.925781 C 191.59375 212.097656 195.6875 207.324219 207.558594 205.132812 C 222.871094 214.539062 240.660156 220.792969 257.332031 222.878906 L 248.984375 238.148438 L 262.503906 260.746094 Z M 262.5 260.746094 " fill-opacity="1" fill-rule="nonzero"/></g><g clip-path="url(#88c3710a5f)"><path fill="#74abf3" d="M 200.484375 118.285156 C 200.433594 118.246094 200.410156 118.230469 200.410156 118.230469 C 202.546875 122.371094 204.167969 126.457031 205.3125 130.46875 C 205.902344 132.535156 206.367188 134.582031 206.710938 136.605469 C 210.164062 156.804688 201.777344 174.960938 187.5 189.40625 C 181.664062 195.308594 174.839844 200.589844 167.441406 205.136719 C 152.128906 214.542969 134.335938 220.796875 117.664062 222.882812 L 126.011719 238.152344 L 112.5 260.746094 C 138.714844 253.355469 166.351562 241.460938 187.5 224.925781 C 195.160156 218.941406 201.972656 212.34375 207.558594 205.132812 C 217.542969 192.25 223.621094 177.402344 223.621094 160.5625 C 223.621094 138.53125 211.011719 125.625 200.488281 118.285156 Z M 200.882812 118.59375 C 200.734375 118.476562 200.617188 118.382812 200.546875 118.328125 C 200.625 118.386719 200.738281 118.476562 200.882812 118.59375 Z M 200.882812 118.59375 " fill-opacity="1" fill-rule="nonzero"/></g></svg>