<svg xmlns="http://www.w3.org/2000/svg" xmlns:xlink="http://www.w3.org/1999/xlink" width="500" zoomAndPan="magnify" viewBox="0 0 375 374.999991" height="500" preserveAspectRatio="xMidYMid meet" version="1.0"><defs><clipPath id="a1b5dccf72"><path d="M 187 205 L 262.5 205 L 262.5 260.8125 L 187 260.8125 Z M 187 205 " clip-rule="nonzero"/></clipPath><clipPath id="88c3710a5f"><path d="M 112.5 118 L 224 118 L 224 260.8125 L 112.5 260.8125 Z M 112.5 118 " clip-rule="nonzero"/></clipPath></defs><rect x="-37.5" width="450" fill="#ffffff" y="-37.499999" height="449.999989" fill-opacity="1"/><rect x="-37.5" width="450" fill="#121327" y="-37.499999" height="449.999989" fill-opacity="1"/><path fill="#2d5ec2" d="M 214.574219 146.398438 C 204.273438 133.949219 183.605469 124.1875 167.003906 142.921875 C 166.054688 143.992188 160.207031 144.949219 159.066406 145.296875 C 159.066406 145.296875 168.785156 127.203125 169.695312 124.453125 C 170.28125 122.683594 174.589844 118.226562 174.589844 118.226562 C 182.832031 114.726562 192.21875 114.621094 200.414062 118.226562 C 200.414062 118.226562 200.4375 118.246094 200.488281 118.28125 C 200.945312 118.625 203.519531 120.609375 205.917969 124 C 208.15625 127.160156 214.574219 146.394531 214.574219 146.394531 Z M 214.574219 146.398438 " fill-opacity="1" fill-rule="nonzero"/><path fill="#3f73db" d="M 187.5 189.402344 C 183.148438 198.847656 177.082031 202.890625 167.441406 205.132812 C 157.457031 192.25 151.375 177.402344 151.375 160.5625 C 151.375 146.382812 154.613281 132.140625 174.585938 118.230469 C 172.328125 122.597656 170.652344 126.90625 169.496094 131.132812 C 168.929688 133.207031 168.484375 135.269531 168.164062 137.308594 C 165.023438 157.226562 173.382812 175.132812 187.492188 189.40625 Z M 187.5 189.402344 " fill-opacity="1" fill-rule="nonzero"/><g clip-path="url(#a1b5dccf72)"><path fill="#3f73db" d="M 262.5 260.746094 C 236.289062 253.355469 208.648438 241.460938 187.5 224.925781 C 191.59375 212.097656 195.6875 207.324219 204.039062 205.132812 C 223.960938 200.414062 244.941406 226.566406 262.5 260.746094 Z M 262.5 260.746094 " fill-opacity="1" fill-rule="nonzero"/></g><g clip-path="url(#88c3710a5f)"><path fill="#2d5ec2" d="M 187.5 118.230469 C 165.082031 134.300781 151.375 151.917969 151.375 177.390625 C 151.375 186.050781 153.203125 194.257812 156.5 201.769531 C 159.816406 194.714844 163.816406 188.292969 168.625 182.78125 C 177.417969 172.421875 187.5 164.472656 187.5 156.675781 C 187.5 148.875 187.5 137.390625 187.5 118.226562 Z M 187.5 118.230469 " fill-opacity="1" fill-rule="nonzero"/></g><path fill="#2d5ec2" d="M 112.5 260.8125 C 130.441406 226.683594 151.375 200.488281 174.585938 189.414062 C 164.195312 191.914062 155.167969 198.25 147.230469 207.214844 C 136.921875 219.191406 128.875 234.078125 123.484375 250.761719 C 121.207031 257.164062 119.558594 264.085938 118.75 271.40625 C 118.164062 276.699219 117.953125 281.894531 118.164062 287.0625 C 118.15625 278.699219 116.007812 270.386719 112.5 262.8125 Z M 112.5 260.8125 " fill-opacity="1" fill-rule="nonzero"/></g></svg>
